<svg xmlns="http://www.w3.org/2000/svg" width="256" height="256" viewBox="0 0 256 256" role="img" aria-labelledby="title desc">
  <title id="title">libaprs-engine signal mark</title>
  <desc id="desc">A minimal parser-boundary bracket containing radio signal pulses.</desc>
  <g fill="none" stroke-linecap="round" stroke-linejoin="round">
    <path d="M76 44H38c-10 0-18 8-18 18v132c0 10 8 18 18 18h38" stroke="#15191f" stroke-width="18"/>
    <path d="M180 44h38c10 0 18 8 18 18v132c0 10-8 18-18 18h-38" stroke="#15191f" stroke-width="18"/>
    <path d="M88 128c20-30 48-30 68 0s48 30 68 0" stroke="#3b82f6" stroke-width="18"/>
    <path d="M112 128c12-18 28-18 40 0s28 18 40 0" stroke="#22c55e" stroke-width="10"/>
  </g>
  <circle cx="128" cy="128" r="12" fill="#f59e0b"/>
</svg>
